<svg xmlns="http://www.w3.org/2000/svg" width="100" height="100" viewBox="0 0 100 100">
  <g id="JW" transform="translate(-5498 -7415)">
    <circle id="Ellipse_12" data-name="Ellipse 12" cx="50" cy="50" r="50" transform="translate(5498 7415)" opacity="0.5"/>
    <path id="Path_7154" data-name="Path 7154" d="M.126,21.927c.063,0,.063-.126.126-.19a1.231,1.231,0,0,1,1.2-.884,1.317,1.317,0,0,1,1.389.821,19.26,19.26,0,0,1,.884,2.463c.126.316.189.695.316,1.01.063.189.063.379.252.442.189,0,.189-.253.253-.379l1.516-4.926c.632-2.084,1.263-4.231,2.084-6.315A9.077,9.077,0,0,1,9.6,11.444a3.2,3.2,0,0,1,3.663-1.01,3.506,3.506,0,0,1,1.894,2.021,11.142,11.142,0,0,1,.821,3.473c.252,2.463.252,4.863.316,7.326,0,.442.063.884.063,1.326,0,.126,0,.252.126.252a.2.2,0,0,0,.19-.189c.252-.821.568-1.579.821-2.4,1.579-4.547,3.094-9.094,4.862-13.514a7.194,7.194,0,0,1,3.031-3.789A5.106,5.106,0,0,1,32.9,7.718a8.267,8.267,0,0,1,.442,2.778V26.6c0,.253-.063.569.126.632.253.063.316-.316.379-.506,3.473-8.335,6.946-16.734,10.42-25.07.063-.19.19-.442.252-.632A1.7,1.7,0,0,1,46.6.077a1.568,1.568,0,0,1,1.011,1.895c-.442,2.084-1.074,4.168-1.642,6.252-2.337,8.589-4.673,17.113-7.2,25.639a85.153,85.153,0,0,1-3.789,10.861,9.906,9.906,0,0,1-1.958,3.094,4.372,4.372,0,0,1-7.452-1.389,10.609,10.609,0,0,1-.821-3.916c.063-2.967.063-5.935.126-8.9.063-2.715.126-5.368.189-8.083,0-.884.063-1.831.063-2.716,0-.19.063-.505-.126-.568s-.252.252-.315.442c-1.452,3.41-2.905,6.82-4.484,10.1a24.841,24.841,0,0,1-2.589,4.546,3.616,3.616,0,0,1-2.463,1.579,3.348,3.348,0,0,1-3.536-1.832,8.894,8.894,0,0,1-.758-3.346c-.189-2.906-.063-5.81,0-8.778,0-1.642.063-3.347.063-4.989,0-.189.063-.505-.126-.568s-.252.252-.316.442L7.262,28.557A12.985,12.985,0,0,1,6.315,30.7a3.842,3.842,0,0,1-.758,1.01,2.224,2.224,0,0,1-3.726-.885,23.166,23.166,0,0,1-.947-3.6c-.316-1.453-.569-2.968-.821-4.42A.232.232,0,0,0,0,22.621c.126-.126.126-.379.126-.694" transform="translate(5524.17 7440.326)" fill="#fff"/>
  </g>
</svg>
