<svg xmlns="http://www.w3.org/2000/svg" width="100" height="100" viewBox="0 0 100 100">
  <g id="SME" transform="translate(-5575 -7415)">
    <circle id="Ellipse_14" data-name="Ellipse 14" cx="50" cy="50" r="50" transform="translate(5575 7415)" opacity="0.5"/>
    <path id="Path_7156" data-name="Path 7156" d="M0,38.034,4.674,26.666a30.059,30.059,0,0,0,5.591,3.2,12.129,12.129,0,0,0,4.594,1.01,4.239,4.239,0,0,0,2.36-.568,1.752,1.752,0,0,0,.86-1.536q0-1.689-4.307-2.574-1.389-.305-2.167-.471a12.825,12.825,0,0,1-6.959-3.935,10.465,10.465,0,0,1-2.41-7.042A13.487,13.487,0,0,1,6.922,4.1Q11.605,0,19.206,0a26.14,26.14,0,0,1,6.877.918A31.84,31.84,0,0,1,32.9,3.7L28.472,14.323a18.225,18.225,0,0,0-4.232-2.366,11.453,11.453,0,0,0-4.12-.817,4.514,4.514,0,0,0-2.36.512,1.594,1.594,0,0,0-.833,1.425q0,1.717,6.082,3.017.972.222,1.5.333a11.555,11.555,0,0,1,6.6,3.853,10.674,10.674,0,0,1,2.412,7.04,13.963,13.963,0,0,1-4.87,11q-4.867,4.266-12.666,4.269a29.1,29.1,0,0,1-7.989-1.137A36.342,36.342,0,0,1,0,38.039Z" transform="translate(5608.243 7443.704)" fill="#fff"/>
  </g>
</svg>
