<svg xmlns="http://www.w3.org/2000/svg" width="100" height="100" viewBox="0 0 100 100">
  <g id="YT" transform="translate(-5421 -7415)">
    <circle id="Ellipse_9" data-name="Ellipse 9" cx="50" cy="50" r="50" transform="translate(5421 7415)" opacity="0.5"/>
    <g id="Group_2617" data-name="Group 2617" transform="translate(5447.215 7448.351)">
      <path id="Subtraction_1" data-name="Subtraction 1" d="M23.785,33.3c-.149,0-14.918-.011-18.585-.994A5.959,5.959,0,0,1,.994,28.1C.011,24.432,0,16.726,0,16.649S.011,8.865.994,5.2A5.959,5.959,0,0,1,5.2.994C8.866.011,23.636,0,23.785,0S38.7.011,42.368.994A5.957,5.957,0,0,1,46.574,5.2c.98,3.663,1,11.372,1,11.449s-.011,7.784-1,11.45A5.955,5.955,0,0,1,42.368,32.3C38.7,33.287,23.933,33.3,23.785,33.3ZM19.023,9.515V23.785L31.381,16.65,19.023,9.515Z" transform="translate(0 0)" fill="#fff" stroke="rgba(0,0,0,0)" stroke-miterlimit="10" stroke-width="1"/>
    </g>
  </g>
</svg>
