<svg xmlns="http://www.w3.org/2000/svg" xmlns:xlink="http://www.w3.org/1999/xlink" width="520" height="210" viewBox="0 0 520 210">
  <defs>
    <clipPath id="clip-path">
      <rect id="Rectangle_2284" data-name="Rectangle 2284" width="59.846" height="49.699" transform="translate(0 0)" fill="none"/>
    </clipPath>
    <clipPath id="clip-Logo_SVG_ADAM">
      <rect width="520" height="210"/>
    </clipPath>
  </defs>
  <g id="Logo_SVG_ADAM" data-name="Logo SVG ADAM" clip-path="url(#clip-Logo_SVG_ADAM)">
    <g id="Group_2340" data-name="Group 2340" transform="translate(231.387 72.433)">
      <g id="Group_70" data-name="Group 70" transform="translate(0 0)">
        <path id="Path_84" data-name="Path 84" d="M3.256,12.594h26.7c17.063,0,31.1-13.577,31.1-32.567S47.015-52.54,29.952-52.54H3.256ZM19.4-2.635V-37.312h10c9.908,0,14.77,7.247,14.77,17.338S39.309-2.635,29.4-2.635ZM82.242-52.54,57.657,12.594H75.179l3.211-9.266h25.136l3.211,9.266h17.43L99.581-52.54Zm1.284,41.1,7.339-21.283L98.3-11.441ZM128.57,12.594h16.146v-34.31h.459l13.485,34.31h11.834l13.485-34.31h.459v34.31h16.146V-52.54h-17.8L164.531-7.955,146.275-52.54H128.57Z" transform="translate(70.469 52.54)" fill="#191133"/>
        <g id="Group_69" data-name="Group 69" transform="translate(0 0)">
          <rect id="Rectangle_84" data-name="Rectangle 84" width="13.268" height="13.268" transform="translate(26.626 51.866)" fill="#191133"/>
          <path id="Path_87" data-name="Path 87" d="M24.585,0,0,65.133H17.522L33.209,19.821,49.084,65.133H66.52L41.925,0Z" transform="translate(0 0)" fill="#191133"/>
        </g>
      </g>
    </g>
    <g id="Group_2341" data-name="Group 2341" transform="translate(12.736 11.639)">
      <path id="Path_2179" data-name="Path 2179" d="M29.405,0H157.317a29.405,29.405,0,0,1,29.405,29.405V157.317a29.405,29.405,0,0,1-29.405,29.405H29.405A29.405,29.405,0,0,1,0,157.317V29.405A29.405,29.405,0,0,1,29.405,0Z" transform="translate(0 0)" fill="#1a9fff"/>
    </g>
    <g id="Group_2342" data-name="Group 2342" transform="translate(76.028 80.15)" clip-path="url(#clip-path)">
      <path id="Path_2227" data-name="Path 2227" d="M.324,11.15a1.073,1.073,0,0,0-.3.989A2.633,2.633,0,0,0,1.813,13.6l2.621.937L27.6,22.911a6.821,6.821,0,0,0,4.422-.007l25.819-9.321c1.07-.4,1.744-1.028,1.762-1.651-.017-.67-.708-1.3-1.8-1.7L32,.911a6.817,6.817,0,0,0-4.4,0h0L1.68,10.262a3.533,3.533,0,0,0-1.355.887M26.763,6.175a9.276,9.276,0,0,1,6.044-.006l15.9,5.742-15.868,5.73a9.281,9.281,0,0,1-6.05.006l-.016-.006L10.916,11.9Z" transform="translate(0 0.237)" fill="#fff"/>
      <path id="Path_2228" data-name="Path 2228" d="M18.935,0h0l.01.032Z" transform="translate(8.248 0)" fill="#fff"/>
      <path id="Path_2229" data-name="Path 2229" d="M26.963,33.062,6.379,25.641a6.821,6.821,0,0,0-4.422,0C.874,26.039.163,26.695.163,27.314c0,.647.711,1.3,1.809,1.7l25.8,9.31a6.836,6.836,0,0,0,4.417-.006l25.775-9.3c1.118-.4,1.812-1.052,1.812-1.69s-.695-1.283-1.81-1.685a6.812,6.812,0,0,0-4.419.006v0L33.005,33.056a9.291,9.291,0,0,1-6.042.006" transform="translate(0.071 11.01)" fill="#fff"/>
      <path id="Path_2230" data-name="Path 2230" d="M53.543,25.644h0a6.822,6.822,0,0,1,4.419,0c1.115.4,1.81,1.048,1.812,1.684s-.695,1.286-1.813,1.691l-25.775,9.3a6.827,6.827,0,0,1-4.417.006l-25.8-9.309c-1.1-.4-1.809-1.055-1.809-1.7,0-.619.711-1.276,1.795-1.668a6.835,6.835,0,0,1,2.222-.37,6.739,6.739,0,0,1,2.2.366l20.584,7.421a9.291,9.291,0,0,0,6.042-.007Z" transform="translate(0.071 11.01)" fill="#fff"/>
      <path id="Path_2231" data-name="Path 2231" d="M57.858,16.7a6.825,6.825,0,0,0-4.392.016l-20.46,7.389a9.285,9.285,0,0,1-6.047.006L6.393,16.678A6.438,6.438,0,0,0,4.2,16.319H4.172a6.589,6.589,0,0,0-2.192.37l0-.009c-1.114.4-1.806,1.048-1.806,1.685s.695,1.285,1.812,1.688l25.784,9.319a6.817,6.817,0,0,0,4.42-.006l25.7-9.283c1.118-.4,1.81-1.051,1.809-1.688s-.706-1.295-1.839-1.7" transform="translate(0.074 7.108)" fill="#fff"/>
      <path id="Path_2232" data-name="Path 2232" d="M57.888,20.085l-25.7,9.283a6.817,6.817,0,0,1-4.42.006L1.982,20.055C.864,19.651.172,19,.172,18.365s.691-1.281,1.806-1.684v.007a6.594,6.594,0,0,1,2.192-.369H4.2a6.449,6.449,0,0,1,2.192.359L26.958,24.11a9.275,9.275,0,0,0,6.05-.006l20.459-7.388a6.8,6.8,0,0,1,4.39-.016c1.134.4,1.839,1.051,1.84,1.694s-.692,1.286-1.809,1.69" transform="translate(0.075 7.108)" fill="#fff"/>
    </g>
  </g>
</svg>
